# xmcd
#
# Track frame offsets:
#	151
#	13906
#	27083
#	42048
#	53028
#	70689
#	85505
#	100522
#	119475
#	131285
#	146682
#
# Disc length: 2169 seconds
#
# Revision: 1
# Processed by: cddbd v1.5.2PL0 Copyright (c) Steve Scherf et al.
# Submitted via: EasyCDDAExtractor 16.0.1.1
#
DISCID=8308770b
DTITLE=Paul Alan Coons - My Own True Love
DYEAR=2002
DGENRE=Country
TTITLE0=A Woman With A Cold Heart
TTITLE1=You're The One I Need
TTITLE2=If I Could Touch You
TTITLE3=I Need A Loose Woman
TTITLE4=My Own True Love
TTITLE5=Close To The Truth
TTITLE6=Not A Brick Out Of Place
TTITLE7=This Old Broker Heart
TTITLE8=I Don't Have To Get Drunk
TTITLE9=Too Old To Dream
TTITLE10=What A Bridge
EXTD=
EXTT0=
EXTT1=
EXTT2=
EXTT3=
EXTT4=
EXTT5=
EXTT6=
EXTT7=
EXTT8=
EXTT9=
EXTT10=
PLAYORDER=
